<svg xmlns="http://www.w3.org/2000/svg" width="1200" height="190" viewBox="0 0 1200 190" fill="none">
<style>
.m{font-family:'JetBrains Mono','Fira Code','Cascadia Code',ui-monospace,SFMono-Regular,Menlo,Consolas,'DejaVu Sans Mono',monospace}
.w1{animation:mv 9s linear infinite}
.w2{animation:mv 14s linear infinite reverse}
.w3{animation:mv 20s linear infinite}
@keyframes mv{to{transform:translateX(-600px)}}
.cur{animation:blink 1s steps(1) infinite}
@keyframes blink{50%{opacity:0}}
@media (prefers-reduced-motion: reduce){*{animation:none!important}}</style>
<defs><clipPath id="fc"><rect width="1200" height="190" rx="18"/></clipPath></defs>

<g clip-path="url(#fc)">
  <rect width="1200" height="190" fill="#1a1b26"/>
  <path class="w3" d="M0 120 q75.0 -10 150.0 0 t150.0 0 q75.0 -10 150.0 0 t150.0 0 q75.0 -10 150.0 0 t150.0 0 q75.0 -10 150.0 0 t150.0 0 q75.0 -10 150.0 0 t150.0 0 q75.0 -10 150.0 0 t150.0 0 q75.0 -10 150.0 0 t150.0 0 q75.0 -10 150.0 0 t150.0 0 V190 H0 Z" fill="#7dcfff" fill-opacity=".10"/>
  <path class="w2" d="M0 130 q150.0 -14 300.0 0 t300.0 0 q150.0 -14 300.0 0 t300.0 0 q150.0 -14 300.0 0 t300.0 0 q150.0 -14 300.0 0 t300.0 0 V190 H0 Z" fill="#bb9af7" fill-opacity=".18"/>
  <path class="w1" d="M0 145 q75.0 -12 150.0 0 t150.0 0 q75.0 -12 150.0 0 t150.0 0 q75.0 -12 150.0 0 t150.0 0 q75.0 -12 150.0 0 t150.0 0 q75.0 -12 150.0 0 t150.0 0 q75.0 -12 150.0 0 t150.0 0 q75.0 -12 150.0 0 t150.0 0 q75.0 -12 150.0 0 t150.0 0 V190 H0 Z" fill="#7aa2f7" fill-opacity=".26"/>
  <text x="600.0" y="62" text-anchor="middle" class="m" font-size="16" fill="#c0caf5">thanks for scrolling. now go solve a problem<tspan class="cur" fill="#7aa2f7">▍</tspan></text>
  <text x="600.0" y="92" text-anchor="middle" class="m" font-size="13" fill="#565f89">verdict: <tspan fill="#9ece6a" font-weight="700">ACCEPTED</tspan>  ·  wilbertprojects.me</text>
</g>
<rect x=".75" y=".75" width="1198.5" height="188.5" rx="17.5" stroke="#3b4261" stroke-width="1.5"/>

</svg>
