<svg xmlns="http://www.w3.org/2000/svg" width="1200" height="288" viewBox="0 0 1200 288" fill="none">
<style>
.m{font-family:'JetBrains Mono','Fira Code','Cascadia Code',ui-monospace,SFMono-Regular,Menlo,Consolas,'DejaVu Sans Mono',monospace}
.col{opacity:0;animation:pop .5s ease-out forwards}
@keyframes pop{from{opacity:0;transform:translateY(6px)}to{opacity:1;transform:none}}
.scan{animation:scan 6s cubic-bezier(.5,0,.5,1) 2s infinite}
@keyframes scan{0%{transform:translateX(0)}70%,100%{transform:translateX(1220px)}}
@media (prefers-reduced-motion: reduce){*{animation:none!important}}</style>
<defs><linearGradient id="scan" x1="0" x2="1"><stop offset="0" stop-color="#7dcfff" stop-opacity="0"/>
<stop offset=".7" stop-color="#7dcfff" stop-opacity=".22"/><stop offset="1" stop-color="#7dcfff" stop-opacity="0"/></linearGradient>
<clipPath id="gridclip"><rect x="86.0" y="80" width="1064.0" height="144"/></clipPath></defs>
<rect width="1200" height="288" rx="18" fill="#1a1b26"/>
<rect x=".75" y=".75" width="1198.5" height="286.5" rx="17.5" stroke="#3b4261" stroke-width="1.5"/>
<text x="32" y="44" class="m" font-size="15" fill="#c0caf5"><tspan fill="#7aa2f7" font-weight="700">298</tspan> contributions in the last year</text>
<text x="90.0" y="74" class="m" font-size="11" fill="#565f89">Oct</text>
<g class="col" style="animation-delay:0.00s"><rect x="90.0" y="84" width="16" height="16" rx="4" fill="#232738"/><rect x="90.0" y="104" width="16" height="16" rx="4" fill="#232738"/><rect x="90.0" y="124" width="16" height="16" rx="4" fill="#232738"/><rect x="90.0" y="144" width="16" height="16" rx="4" fill="#232738"/><rect x="90.0" y="164" width="16" height="16" rx="4" fill="#232738"/><rect x="90.0" y="184" width="16" height="16" rx="4" fill="#232738"/><rect x="90.0" y="204" width="16" height="16" rx="4" fill="#232738"/></g>
<g class="col" style="animation-delay:0.03s"><rect x="110.0" y="84" width="16" height="16" rx="4" fill="#232738"/><rect x="110.0" y="104" width="16" height="16" rx="4" fill="#232738"/><rect x="110.0" y="124" width="16" height="16" rx="4" fill="#232738"/><rect x="110.0" y="144" width="16" height="16" rx="4" fill="#232738"/><rect x="110.0" y="164" width="16" height="16" rx="4" fill="#232738"/><rect x="110.0" y="184" width="16" height="16" rx="4" fill="#232738"/><rect x="110.0" y="204" width="16" height="16" rx="4" fill="#232738"/></g>
<g class="col" style="animation-delay:0.06s"><rect x="130.0" y="84" width="16" height="16" rx="4" fill="#232738"/><rect x="130.0" y="104" width="16" height="16" rx="4" fill="#232738"/><rect x="130.0" y="124" width="16" height="16" rx="4" fill="#232738"/><rect x="130.0" y="144" width="16" height="16" rx="4" fill="#232738"/><rect x="130.0" y="164" width="16" height="16" rx="4" fill="#232738"/><rect x="130.0" y="184" width="16" height="16" rx="4" fill="#232738"/><rect x="130.0" y="204" width="16" height="16" rx="4" fill="#232738"/></g>
<g class="col" style="animation-delay:0.09s"><rect x="150.0" y="84" width="16" height="16" rx="4" fill="#232738"/><rect x="150.0" y="104" width="16" height="16" rx="4" fill="#232738"/><rect x="150.0" y="124" width="16" height="16" rx="4" fill="#232738"/><rect x="150.0" y="144" width="16" height="16" rx="4" fill="#232738"/><rect x="150.0" y="164" width="16" height="16" rx="4" fill="#232738"/><rect x="150.0" y="184" width="16" height="16" rx="4" fill="#232738"/><rect x="150.0" y="204" width="16" height="16" rx="4" fill="#232738"/></g>
<text x="170.0" y="74" class="m" font-size="11" fill="#565f89">Nov</text>
<g class="col" style="animation-delay:0.12s"><rect x="170.0" y="84" width="16" height="16" rx="4" fill="#232738"/><rect x="170.0" y="104" width="16" height="16" rx="4" fill="#232738"/><rect x="170.0" y="124" width="16" height="16" rx="4" fill="#232738"/><rect x="170.0" y="144" width="16" height="16" rx="4" fill="#232738"/><rect x="170.0" y="164" width="16" height="16" rx="4" fill="#232738"/><rect x="170.0" y="184" width="16" height="16" rx="4" fill="#232738"/><rect x="170.0" y="204" width="16" height="16" rx="4" fill="#232738"/></g>
<g class="col" style="animation-delay:0.15s"><rect x="190.0" y="84" width="16" height="16" rx="4" fill="#232738"/><rect x="190.0" y="104" width="16" height="16" rx="4" fill="#232738"/><rect x="190.0" y="124" width="16" height="16" rx="4" fill="#232738"/><rect x="190.0" y="144" width="16" height="16" rx="4" fill="#232738"/><rect x="190.0" y="164" width="16" height="16" rx="4" fill="#232738"/><rect x="190.0" y="184" width="16" height="16" rx="4" fill="#232738"/><rect x="190.0" y="204" width="16" height="16" rx="4" fill="#232738"/></g>
<g class="col" style="animation-delay:0.18s"><rect x="210.0" y="84" width="16" height="16" rx="4" fill="#232738"/><rect x="210.0" y="104" width="16" height="16" rx="4" fill="#232738"/><rect x="210.0" y="124" width="16" height="16" rx="4" fill="#232738"/><rect x="210.0" y="144" width="16" height="16" rx="4" fill="#232738"/><rect x="210.0" y="164" width="16" height="16" rx="4" fill="#232738"/><rect x="210.0" y="184" width="16" height="16" rx="4" fill="#232738"/><rect x="210.0" y="204" width="16" height="16" rx="4" fill="#232738"/></g>
<g class="col" style="animation-delay:0.21s"><rect x="230.0" y="84" width="16" height="16" rx="4" fill="#232738"/><rect x="230.0" y="104" width="16" height="16" rx="4" fill="#232738"/><rect x="230.0" y="124" width="16" height="16" rx="4" fill="#232738"/><rect x="230.0" y="144" width="16" height="16" rx="4" fill="#232738"/><rect x="230.0" y="164" width="16" height="16" rx="4" fill="#232738"/><rect x="230.0" y="184" width="16" height="16" rx="4" fill="#232738"/><rect x="230.0" y="204" width="16" height="16" rx="4" fill="#232738"/></g>
<g class="col" style="animation-delay:0.24s"><rect x="250.0" y="84" width="16" height="16" rx="4" fill="#232738"/><rect x="250.0" y="104" width="16" height="16" rx="4" fill="#232738"/><rect x="250.0" y="124" width="16" height="16" rx="4" fill="#232738"/><rect x="250.0" y="144" width="16" height="16" rx="4" fill="#232738"/><rect x="250.0" y="164" width="16" height="16" rx="4" fill="#232738"/><rect x="250.0" y="184" width="16" height="16" rx="4" fill="#232738"/><rect x="250.0" y="204" width="16" height="16" rx="4" fill="#232738"/></g>
<text x="270.0" y="74" class="m" font-size="11" fill="#565f89">Dec</text>
<g class="col" style="animation-delay:0.27s"><rect x="270.0" y="84" width="16" height="16" rx="4" fill="#232738"/><rect x="270.0" y="104" width="16" height="16" rx="4" fill="#232738"/><rect x="270.0" y="124" width="16" height="16" rx="4" fill="#232738"/><rect x="270.0" y="144" width="16" height="16" rx="4" fill="#232738"/><rect x="270.0" y="164" width="16" height="16" rx="4" fill="#232738"/><rect x="270.0" y="184" width="16" height="16" rx="4" fill="#232738"/><rect x="270.0" y="204" width="16" height="16" rx="4" fill="#232738"/></g>
<g class="col" style="animation-delay:0.30s"><rect x="290.0" y="84" width="16" height="16" rx="4" fill="#232738"/><rect x="290.0" y="104" width="16" height="16" rx="4" fill="#232738"/><rect x="290.0" y="124" width="16" height="16" rx="4" fill="#232738"/><rect x="290.0" y="144" width="16" height="16" rx="4" fill="#232738"/><rect x="290.0" y="164" width="16" height="16" rx="4" fill="#232738"/><rect x="290.0" y="184" width="16" height="16" rx="4" fill="#232738"/><rect x="290.0" y="204" width="16" height="16" rx="4" fill="#232738"/></g>
<g class="col" style="animation-delay:0.33s"><rect x="310.0" y="84" width="16" height="16" rx="4" fill="#3d59a1"/><rect x="310.0" y="104" width="16" height="16" rx="4" fill="#232738"/><rect x="310.0" y="124" width="16" height="16" rx="4" fill="#2e3f6e"/><rect x="310.0" y="144" width="16" height="16" rx="4" fill="#232738"/><rect x="310.0" y="164" width="16" height="16" rx="4" fill="#232738"/><rect x="310.0" y="184" width="16" height="16" rx="4" fill="#232738"/><rect x="310.0" y="204" width="16" height="16" rx="4" fill="#232738"/></g>
<g class="col" style="animation-delay:0.36s"><rect x="330.0" y="84" width="16" height="16" rx="4" fill="#232738"/><rect x="330.0" y="104" width="16" height="16" rx="4" fill="#232738"/><rect x="330.0" y="124" width="16" height="16" rx="4" fill="#3d59a1"/><rect x="330.0" y="144" width="16" height="16" rx="4" fill="#232738"/><rect x="330.0" y="164" width="16" height="16" rx="4" fill="#232738"/><rect x="330.0" y="184" width="16" height="16" rx="4" fill="#2e3f6e"/><rect x="330.0" y="204" width="16" height="16" rx="4" fill="#232738"/></g>
<text x="350.0" y="74" class="m" font-size="11" fill="#565f89">Jan</text>
<g class="col" style="animation-delay:0.39s"><rect x="350.0" y="84" width="16" height="16" rx="4" fill="#232738"/><rect x="350.0" y="104" width="16" height="16" rx="4" fill="#232738"/><rect x="350.0" y="124" width="16" height="16" rx="4" fill="#232738"/><rect x="350.0" y="144" width="16" height="16" rx="4" fill="#2e3f6e"/><rect x="350.0" y="164" width="16" height="16" rx="4" fill="#2e3f6e"/><rect x="350.0" y="184" width="16" height="16" rx="4" fill="#232738"/><rect x="350.0" y="204" width="16" height="16" rx="4" fill="#232738"/></g>
<g class="col" style="animation-delay:0.42s"><rect x="370.0" y="84" width="16" height="16" rx="4" fill="#7aa2f7"/><rect x="370.0" y="104" width="16" height="16" rx="4" fill="#232738"/><rect x="370.0" y="124" width="16" height="16" rx="4" fill="#2e3f6e"/><rect x="370.0" y="144" width="16" height="16" rx="4" fill="#232738"/><rect x="370.0" y="164" width="16" height="16" rx="4" fill="#232738"/><rect x="370.0" y="184" width="16" height="16" rx="4" fill="#232738"/><rect x="370.0" y="204" width="16" height="16" rx="4" fill="#3d59a1"/></g>
<g class="col" style="animation-delay:0.45s"><rect x="390.0" y="84" width="16" height="16" rx="4" fill="#232738"/><rect x="390.0" y="104" width="16" height="16" rx="4" fill="#232738"/><rect x="390.0" y="124" width="16" height="16" rx="4" fill="#232738"/><rect x="390.0" y="144" width="16" height="16" rx="4" fill="#232738"/><rect x="390.0" y="164" width="16" height="16" rx="4" fill="#232738"/><rect x="390.0" y="184" width="16" height="16" rx="4" fill="#232738"/><rect x="390.0" y="204" width="16" height="16" rx="4" fill="#232738"/></g>
<g class="col" style="animation-delay:0.48s"><rect x="410.0" y="84" width="16" height="16" rx="4" fill="#2e3f6e"/><rect x="410.0" y="104" width="16" height="16" rx="4" fill="#232738"/><rect x="410.0" y="124" width="16" height="16" rx="4" fill="#232738"/><rect x="410.0" y="144" width="16" height="16" rx="4" fill="#232738"/><rect x="410.0" y="164" width="16" height="16" rx="4" fill="#232738"/><rect x="410.0" y="184" width="16" height="16" rx="4" fill="#232738"/><rect x="410.0" y="204" width="16" height="16" rx="4" fill="#232738"/></g>
<text x="430.0" y="74" class="m" font-size="11" fill="#565f89">Feb</text>
<g class="col" style="animation-delay:0.51s"><rect x="430.0" y="84" width="16" height="16" rx="4" fill="#232738"/><rect x="430.0" y="104" width="16" height="16" rx="4" fill="#232738"/><rect x="430.0" y="124" width="16" height="16" rx="4" fill="#232738"/><rect x="430.0" y="144" width="16" height="16" rx="4" fill="#232738"/><rect x="430.0" y="164" width="16" height="16" rx="4" fill="#232738"/><rect x="430.0" y="184" width="16" height="16" rx="4" fill="#232738"/><rect x="430.0" y="204" width="16" height="16" rx="4" fill="#232738"/></g>
<g class="col" style="animation-delay:0.54s"><rect x="450.0" y="84" width="16" height="16" rx="4" fill="#232738"/><rect x="450.0" y="104" width="16" height="16" rx="4" fill="#232738"/><rect x="450.0" y="124" width="16" height="16" rx="4" fill="#232738"/><rect x="450.0" y="144" width="16" height="16" rx="4" fill="#232738"/><rect x="450.0" y="164" width="16" height="16" rx="4" fill="#232738"/><rect x="450.0" y="184" width="16" height="16" rx="4" fill="#232738"/><rect x="450.0" y="204" width="16" height="16" rx="4" fill="#232738"/></g>
<g class="col" style="animation-delay:0.57s"><rect x="470.0" y="84" width="16" height="16" rx="4" fill="#232738"/><rect x="470.0" y="104" width="16" height="16" rx="4" fill="#232738"/><rect x="470.0" y="124" width="16" height="16" rx="4" fill="#232738"/><rect x="470.0" y="144" width="16" height="16" rx="4" fill="#232738"/><rect x="470.0" y="164" width="16" height="16" rx="4" fill="#232738"/><rect x="470.0" y="184" width="16" height="16" rx="4" fill="#232738"/><rect x="470.0" y="204" width="16" height="16" rx="4" fill="#232738"/></g>
<g class="col" style="animation-delay:0.60s"><rect x="490.0" y="84" width="16" height="16" rx="4" fill="#232738"/><rect x="490.0" y="104" width="16" height="16" rx="4" fill="#3d59a1"/><rect x="490.0" y="124" width="16" height="16" rx="4" fill="#7aa2f7"/><rect x="490.0" y="144" width="16" height="16" rx="4" fill="#7aa2f7"/><rect x="490.0" y="164" width="16" height="16" rx="4" fill="#2e3f6e"/><rect x="490.0" y="184" width="16" height="16" rx="4" fill="#2e3f6e"/><rect x="490.0" y="204" width="16" height="16" rx="4" fill="#232738"/></g>
<text x="510.0" y="74" class="m" font-size="11" fill="#565f89">Mar</text>
<g class="col" style="animation-delay:0.63s"><rect x="510.0" y="84" width="16" height="16" rx="4" fill="#232738"/><rect x="510.0" y="104" width="16" height="16" rx="4" fill="#232738"/><rect x="510.0" y="124" width="16" height="16" rx="4" fill="#2e3f6e"/><rect x="510.0" y="144" width="16" height="16" rx="4" fill="#3d59a1"/><rect x="510.0" y="164" width="16" height="16" rx="4" fill="#232738"/><rect x="510.0" y="184" width="16" height="16" rx="4" fill="#232738"/><rect x="510.0" y="204" width="16" height="16" rx="4" fill="#232738"/></g>
<g class="col" style="animation-delay:0.66s"><rect x="530.0" y="84" width="16" height="16" rx="4" fill="#232738"/><rect x="530.0" y="104" width="16" height="16" rx="4" fill="#3d59a1"/><rect x="530.0" y="124" width="16" height="16" rx="4" fill="#3d59a1"/><rect x="530.0" y="144" width="16" height="16" rx="4" fill="#232738"/><rect x="530.0" y="164" width="16" height="16" rx="4" fill="#2e3f6e"/><rect x="530.0" y="184" width="16" height="16" rx="4" fill="#232738"/><rect x="530.0" y="204" width="16" height="16" rx="4" fill="#232738"/></g>
<g class="col" style="animation-delay:0.69s"><rect x="550.0" y="84" width="16" height="16" rx="4" fill="#232738"/><rect x="550.0" y="104" width="16" height="16" rx="4" fill="#232738"/><rect x="550.0" y="124" width="16" height="16" rx="4" fill="#232738"/><rect x="550.0" y="144" width="16" height="16" rx="4" fill="#232738"/><rect x="550.0" y="164" width="16" height="16" rx="4" fill="#232738"/><rect x="550.0" y="184" width="16" height="16" rx="4" fill="#232738"/><rect x="550.0" y="204" width="16" height="16" rx="4" fill="#232738"/></g>
<g class="col" style="animation-delay:0.72s"><rect x="570.0" y="84" width="16" height="16" rx="4" fill="#232738"/><rect x="570.0" y="104" width="16" height="16" rx="4" fill="#232738"/><rect x="570.0" y="124" width="16" height="16" rx="4" fill="#232738"/><rect x="570.0" y="144" width="16" height="16" rx="4" fill="#232738"/><rect x="570.0" y="164" width="16" height="16" rx="4" fill="#232738"/><rect x="570.0" y="184" width="16" height="16" rx="4" fill="#232738"/><rect x="570.0" y="204" width="16" height="16" rx="4" fill="#232738"/></g>
<g class="col" style="animation-delay:0.75s"><rect x="590.0" y="84" width="16" height="16" rx="4" fill="#232738"/><rect x="590.0" y="104" width="16" height="16" rx="4" fill="#232738"/><rect x="590.0" y="124" width="16" height="16" rx="4" fill="#232738"/><rect x="590.0" y="144" width="16" height="16" rx="4" fill="#232738"/><rect x="590.0" y="164" width="16" height="16" rx="4" fill="#232738"/><rect x="590.0" y="184" width="16" height="16" rx="4" fill="#232738"/><rect x="590.0" y="204" width="16" height="16" rx="4" fill="#232738"/></g>
<text x="610.0" y="74" class="m" font-size="11" fill="#565f89">Apr</text>
<g class="col" style="animation-delay:0.78s"><rect x="610.0" y="84" width="16" height="16" rx="4" fill="#232738"/><rect x="610.0" y="104" width="16" height="16" rx="4" fill="#232738"/><rect x="610.0" y="124" width="16" height="16" rx="4" fill="#232738"/><rect x="610.0" y="144" width="16" height="16" rx="4" fill="#232738"/><rect x="610.0" y="164" width="16" height="16" rx="4" fill="#232738"/><rect x="610.0" y="184" width="16" height="16" rx="4" fill="#232738"/><rect x="610.0" y="204" width="16" height="16" rx="4" fill="#232738"/></g>
<g class="col" style="animation-delay:0.81s"><rect x="630.0" y="84" width="16" height="16" rx="4" fill="#232738"/><rect x="630.0" y="104" width="16" height="16" rx="4" fill="#232738"/><rect x="630.0" y="124" width="16" height="16" rx="4" fill="#232738"/><rect x="630.0" y="144" width="16" height="16" rx="4" fill="#232738"/><rect x="630.0" y="164" width="16" height="16" rx="4" fill="#232738"/><rect x="630.0" y="184" width="16" height="16" rx="4" fill="#2e3f6e"/><rect x="630.0" y="204" width="16" height="16" rx="4" fill="#232738"/></g>
<g class="col" style="animation-delay:0.84s"><rect x="650.0" y="84" width="16" height="16" rx="4" fill="#232738"/><rect x="650.0" y="104" width="16" height="16" rx="4" fill="#232738"/><rect x="650.0" y="124" width="16" height="16" rx="4" fill="#232738"/><rect x="650.0" y="144" width="16" height="16" rx="4" fill="#232738"/><rect x="650.0" y="164" width="16" height="16" rx="4" fill="#232738"/><rect x="650.0" y="184" width="16" height="16" rx="4" fill="#232738"/><rect x="650.0" y="204" width="16" height="16" rx="4" fill="#232738"/></g>
<g class="col" style="animation-delay:0.87s"><rect x="670.0" y="84" width="16" height="16" rx="4" fill="#232738"/><rect x="670.0" y="104" width="16" height="16" rx="4" fill="#232738"/><rect x="670.0" y="124" width="16" height="16" rx="4" fill="#232738"/><rect x="670.0" y="144" width="16" height="16" rx="4" fill="#232738"/><rect x="670.0" y="164" width="16" height="16" rx="4" fill="#232738"/><rect x="670.0" y="184" width="16" height="16" rx="4" fill="#3d59a1"/><rect x="670.0" y="204" width="16" height="16" rx="4" fill="#232738"/></g>
<text x="690.0" y="74" class="m" font-size="11" fill="#565f89">May</text>
<g class="col" style="animation-delay:0.90s"><rect x="690.0" y="84" width="16" height="16" rx="4" fill="#232738"/><rect x="690.0" y="104" width="16" height="16" rx="4" fill="#232738"/><rect x="690.0" y="124" width="16" height="16" rx="4" fill="#232738"/><rect x="690.0" y="144" width="16" height="16" rx="4" fill="#232738"/><rect x="690.0" y="164" width="16" height="16" rx="4" fill="#232738"/><rect x="690.0" y="184" width="16" height="16" rx="4" fill="#232738"/><rect x="690.0" y="204" width="16" height="16" rx="4" fill="#232738"/></g>
<g class="col" style="animation-delay:0.93s"><rect x="710.0" y="84" width="16" height="16" rx="4" fill="#232738"/><rect x="710.0" y="104" width="16" height="16" rx="4" fill="#232738"/><rect x="710.0" y="124" width="16" height="16" rx="4" fill="#232738"/><rect x="710.0" y="144" width="16" height="16" rx="4" fill="#232738"/><rect x="710.0" y="164" width="16" height="16" rx="4" fill="#232738"/><rect x="710.0" y="184" width="16" height="16" rx="4" fill="#232738"/><rect x="710.0" y="204" width="16" height="16" rx="4" fill="#232738"/></g>
<g class="col" style="animation-delay:0.96s"><rect x="730.0" y="84" width="16" height="16" rx="4" fill="#232738"/><rect x="730.0" y="104" width="16" height="16" rx="4" fill="#232738"/><rect x="730.0" y="124" width="16" height="16" rx="4" fill="#232738"/><rect x="730.0" y="144" width="16" height="16" rx="4" fill="#232738"/><rect x="730.0" y="164" width="16" height="16" rx="4" fill="#232738"/><rect x="730.0" y="184" width="16" height="16" rx="4" fill="#232738"/><rect x="730.0" y="204" width="16" height="16" rx="4" fill="#232738"/></g>
<g class="col" style="animation-delay:0.99s"><rect x="750.0" y="84" width="16" height="16" rx="4" fill="#232738"/><rect x="750.0" y="104" width="16" height="16" rx="4" fill="#232738"/><rect x="750.0" y="124" width="16" height="16" rx="4" fill="#232738"/><rect x="750.0" y="144" width="16" height="16" rx="4" fill="#232738"/><rect x="750.0" y="164" width="16" height="16" rx="4" fill="#232738"/><rect x="750.0" y="184" width="16" height="16" rx="4" fill="#232738"/><rect x="750.0" y="204" width="16" height="16" rx="4" fill="#232738"/></g>
<g class="col" style="animation-delay:1.02s"><rect x="770.0" y="84" width="16" height="16" rx="4" fill="#232738"/><rect x="770.0" y="104" width="16" height="16" rx="4" fill="#3d59a1"/><rect x="770.0" y="124" width="16" height="16" rx="4" fill="#232738"/><rect x="770.0" y="144" width="16" height="16" rx="4" fill="#232738"/><rect x="770.0" y="164" width="16" height="16" rx="4" fill="#232738"/><rect x="770.0" y="184" width="16" height="16" rx="4" fill="#232738"/><rect x="770.0" y="204" width="16" height="16" rx="4" fill="#232738"/></g>
<text x="790.0" y="74" class="m" font-size="11" fill="#565f89">Jun</text>
<g class="col" style="animation-delay:1.05s"><rect x="790.0" y="84" width="16" height="16" rx="4" fill="#232738"/><rect x="790.0" y="104" width="16" height="16" rx="4" fill="#232738"/><rect x="790.0" y="124" width="16" height="16" rx="4" fill="#232738"/><rect x="790.0" y="144" width="16" height="16" rx="4" fill="#232738"/><rect x="790.0" y="164" width="16" height="16" rx="4" fill="#232738"/><rect x="790.0" y="184" width="16" height="16" rx="4" fill="#232738"/><rect x="790.0" y="204" width="16" height="16" rx="4" fill="#232738"/></g>
<g class="col" style="animation-delay:1.08s"><rect x="810.0" y="84" width="16" height="16" rx="4" fill="#232738"/><rect x="810.0" y="104" width="16" height="16" rx="4" fill="#232738"/><rect x="810.0" y="124" width="16" height="16" rx="4" fill="#232738"/><rect x="810.0" y="144" width="16" height="16" rx="4" fill="#232738"/><rect x="810.0" y="164" width="16" height="16" rx="4" fill="#232738"/><rect x="810.0" y="184" width="16" height="16" rx="4" fill="#232738"/><rect x="810.0" y="204" width="16" height="16" rx="4" fill="#232738"/></g>
<g class="col" style="animation-delay:1.11s"><rect x="830.0" y="84" width="16" height="16" rx="4" fill="#232738"/><rect x="830.0" y="104" width="16" height="16" rx="4" fill="#232738"/><rect x="830.0" y="124" width="16" height="16" rx="4" fill="#232738"/><rect x="830.0" y="144" width="16" height="16" rx="4" fill="#232738"/><rect x="830.0" y="164" width="16" height="16" rx="4" fill="#232738"/><rect x="830.0" y="184" width="16" height="16" rx="4" fill="#232738"/><rect x="830.0" y="204" width="16" height="16" rx="4" fill="#232738"/></g>
<g class="col" style="animation-delay:1.14s"><rect x="850.0" y="84" width="16" height="16" rx="4" fill="#232738"/><rect x="850.0" y="104" width="16" height="16" rx="4" fill="#232738"/><rect x="850.0" y="124" width="16" height="16" rx="4" fill="#232738"/><rect x="850.0" y="144" width="16" height="16" rx="4" fill="#232738"/><rect x="850.0" y="164" width="16" height="16" rx="4" fill="#232738"/><rect x="850.0" y="184" width="16" height="16" rx="4" fill="#3d59a1"/><rect x="850.0" y="204" width="16" height="16" rx="4" fill="#232738"/></g>
<text x="870.0" y="74" class="m" font-size="11" fill="#565f89">Jul</text>
<g class="col" style="animation-delay:1.17s"><rect x="870.0" y="84" width="16" height="16" rx="4" fill="#232738"/><rect x="870.0" y="104" width="16" height="16" rx="4" fill="#232738"/><rect x="870.0" y="124" width="16" height="16" rx="4" fill="#2e3f6e"/><rect x="870.0" y="144" width="16" height="16" rx="4" fill="#232738"/><rect x="870.0" y="164" width="16" height="16" rx="4" fill="#232738"/><rect x="870.0" y="184" width="16" height="16" rx="4" fill="#232738"/><rect x="870.0" y="204" width="16" height="16" rx="4" fill="#3d59a1"/></g>
<g class="col" style="animation-delay:1.20s"><rect x="890.0" y="84" width="16" height="16" rx="4" fill="#232738"/><rect x="890.0" y="104" width="16" height="16" rx="4" fill="#232738"/><rect x="890.0" y="124" width="16" height="16" rx="4" fill="#232738"/><rect x="890.0" y="144" width="16" height="16" rx="4" fill="#232738"/><rect x="890.0" y="164" width="16" height="16" rx="4" fill="#232738"/><rect x="890.0" y="184" width="16" height="16" rx="4" fill="#232738"/><rect x="890.0" y="204" width="16" height="16" rx="4" fill="#232738"/></g>
<g class="col" style="animation-delay:1.23s"><rect x="910.0" y="84" width="16" height="16" rx="4" fill="#232738"/><rect x="910.0" y="104" width="16" height="16" rx="4" fill="#232738"/><rect x="910.0" y="124" width="16" height="16" rx="4" fill="#232738"/><rect x="910.0" y="144" width="16" height="16" rx="4" fill="#232738"/><rect x="910.0" y="164" width="16" height="16" rx="4" fill="#232738"/><rect x="910.0" y="184" width="16" height="16" rx="4" fill="#232738"/><rect x="910.0" y="204" width="16" height="16" rx="4" fill="#232738"/></g>
<g class="col" style="animation-delay:1.26s"><rect x="930.0" y="84" width="16" height="16" rx="4" fill="#232738"/><rect x="930.0" y="104" width="16" height="16" rx="4" fill="#3d59a1"/><rect x="930.0" y="124" width="16" height="16" rx="4" fill="#232738"/><rect x="930.0" y="144" width="16" height="16" rx="4" fill="#bb9af7"/><rect x="930.0" y="164" width="16" height="16" rx="4" fill="#3d59a1"/><rect x="930.0" y="184" width="16" height="16" rx="4" fill="#bb9af7"/><rect x="930.0" y="204" width="16" height="16" rx="4" fill="#bb9af7"/></g>
<text x="950.0" y="74" class="m" font-size="11" fill="#565f89">Aug</text>
<g class="col" style="animation-delay:1.29s"><rect x="950.0" y="84" width="16" height="16" rx="4" fill="#bb9af7"/><rect x="950.0" y="104" width="16" height="16" rx="4" fill="#232738"/><rect x="950.0" y="124" width="16" height="16" rx="4" fill="#232738"/><rect x="950.0" y="144" width="16" height="16" rx="4" fill="#232738"/><rect x="950.0" y="164" width="16" height="16" rx="4" fill="#7aa2f7"/><rect x="950.0" y="184" width="16" height="16" rx="4" fill="#3d59a1"/><rect x="950.0" y="204" width="16" height="16" rx="4" fill="#232738"/></g>
<g class="col" style="animation-delay:1.32s"><rect x="970.0" y="84" width="16" height="16" rx="4" fill="#232738"/><rect x="970.0" y="104" width="16" height="16" rx="4" fill="#232738"/><rect x="970.0" y="124" width="16" height="16" rx="4" fill="#232738"/><rect x="970.0" y="144" width="16" height="16" rx="4" fill="#232738"/><rect x="970.0" y="164" width="16" height="16" rx="4" fill="#232738"/><rect x="970.0" y="184" width="16" height="16" rx="4" fill="#232738"/><rect x="970.0" y="204" width="16" height="16" rx="4" fill="#232738"/></g>
<g class="col" style="animation-delay:1.35s"><rect x="990.0" y="84" width="16" height="16" rx="4" fill="#232738"/><rect x="990.0" y="104" width="16" height="16" rx="4" fill="#232738"/><rect x="990.0" y="124" width="16" height="16" rx="4" fill="#bb9af7"/><rect x="990.0" y="144" width="16" height="16" rx="4" fill="#232738"/><rect x="990.0" y="164" width="16" height="16" rx="4" fill="#bb9af7"/><rect x="990.0" y="184" width="16" height="16" rx="4" fill="#bb9af7"/><rect x="990.0" y="204" width="16" height="16" rx="4" fill="#3d59a1"/></g>
<g class="col" style="animation-delay:1.38s"><rect x="1010.0" y="84" width="16" height="16" rx="4" fill="#bb9af7"/><rect x="1010.0" y="104" width="16" height="16" rx="4" fill="#232738"/><rect x="1010.0" y="124" width="16" height="16" rx="4" fill="#232738"/><rect x="1010.0" y="144" width="16" height="16" rx="4" fill="#232738"/><rect x="1010.0" y="164" width="16" height="16" rx="4" fill="#232738"/><rect x="1010.0" y="184" width="16" height="16" rx="4" fill="#232738"/><rect x="1010.0" y="204" width="16" height="16" rx="4" fill="#232738"/></g>
<g class="col" style="animation-delay:1.41s"><rect x="1030.0" y="84" width="16" height="16" rx="4" fill="#232738"/><rect x="1030.0" y="104" width="16" height="16" rx="4" fill="#232738"/><rect x="1030.0" y="124" width="16" height="16" rx="4" fill="#232738"/><rect x="1030.0" y="144" width="16" height="16" rx="4" fill="#232738"/><rect x="1030.0" y="164" width="16" height="16" rx="4" fill="#232738"/><rect x="1030.0" y="184" width="16" height="16" rx="4" fill="#7aa2f7"/><rect x="1030.0" y="204" width="16" height="16" rx="4" fill="#232738"/></g>
<text x="1050.0" y="74" class="m" font-size="11" fill="#565f89">Sep</text>
<g class="col" style="animation-delay:1.44s"><rect x="1050.0" y="84" width="16" height="16" rx="4" fill="#232738"/><rect x="1050.0" y="104" width="16" height="16" rx="4" fill="#232738"/><rect x="1050.0" y="124" width="16" height="16" rx="4" fill="#232738"/><rect x="1050.0" y="144" width="16" height="16" rx="4" fill="#232738"/><rect x="1050.0" y="164" width="16" height="16" rx="4" fill="#232738"/><rect x="1050.0" y="184" width="16" height="16" rx="4" fill="#232738"/><rect x="1050.0" y="204" width="16" height="16" rx="4" fill="#232738"/></g>
<g class="col" style="animation-delay:1.47s"><rect x="1070.0" y="84" width="16" height="16" rx="4" fill="#3d59a1"/><rect x="1070.0" y="104" width="16" height="16" rx="4" fill="#7aa2f7"/><rect x="1070.0" y="124" width="16" height="16" rx="4" fill="#232738"/><rect x="1070.0" y="144" width="16" height="16" rx="4" fill="#bb9af7"/><rect x="1070.0" y="164" width="16" height="16" rx="4" fill="#bb9af7"/><rect x="1070.0" y="184" width="16" height="16" rx="4" fill="#7aa2f7"/><rect x="1070.0" y="204" width="16" height="16" rx="4" fill="#232738"/></g>
<g class="col" style="animation-delay:1.50s"><rect x="1090.0" y="84" width="16" height="16" rx="4" fill="#232738"/><rect x="1090.0" y="104" width="16" height="16" rx="4" fill="#232738"/><rect x="1090.0" y="124" width="16" height="16" rx="4" fill="#232738"/><rect x="1090.0" y="144" width="16" height="16" rx="4" fill="#232738"/><rect x="1090.0" y="164" width="16" height="16" rx="4" fill="#232738"/><rect x="1090.0" y="184" width="16" height="16" rx="4" fill="#bb9af7"/><rect x="1090.0" y="204" width="16" height="16" rx="4" fill="#7aa2f7"/></g>
<g class="col" style="animation-delay:1.53s"><rect x="1110.0" y="84" width="16" height="16" rx="4" fill="#232738"/><rect x="1110.0" y="104" width="16" height="16" rx="4" fill="#2e3f6e"/><rect x="1110.0" y="124" width="16" height="16" rx="4" fill="#232738"/><rect x="1110.0" y="144" width="16" height="16" rx="4" fill="#232738"/><rect x="1110.0" y="164" width="16" height="16" rx="4" fill="#232738"/><rect x="1110.0" y="184" width="16" height="16" rx="4" fill="#232738"/><rect x="1110.0" y="204" width="16" height="16" rx="4" fill="#232738"/></g>
<g class="col" style="animation-delay:1.56s"><rect x="1130.0" y="84" width="16" height="16" rx="4" fill="#232738"/><rect x="1130.0" y="104" width="16" height="16" rx="4" fill="#232738"/><rect x="1130.0" y="124" width="16" height="16" rx="4" fill="#232738"/><rect x="1130.0" y="144" width="16" height="16" rx="4" fill="#232738"/></g>
<text x="78.0" y="116" text-anchor="end" class="m" font-size="11" fill="#565f89">Mon</text>
<text x="78.0" y="156" text-anchor="end" class="m" font-size="11" fill="#565f89">Wed</text>
<text x="78.0" y="196" text-anchor="end" class="m" font-size="11" fill="#565f89">Fri</text>
<g clip-path="url(#gridclip)"><rect class="scan" x="-50.0" y="80" width="120" height="144" fill="url(#scan)"/></g>
<text x="978.0" y="270" class="m" font-size="11" fill="#565f89">less</text>
<rect x="1014.0" y="258" width="15" height="15" rx="4" fill="#232738"/>
<rect x="1034.0" y="258" width="15" height="15" rx="4" fill="#2e3f6e"/>
<rect x="1054.0" y="258" width="15" height="15" rx="4" fill="#3d59a1"/>
<rect x="1074.0" y="258" width="15" height="15" rx="4" fill="#7aa2f7"/>
<rect x="1094.0" y="258" width="15" height="15" rx="4" fill="#bb9af7"/>
<text x="1118.0" y="270" class="m" font-size="11" fill="#565f89">more</text>
</svg>
